<?xml version="1.0" standalone="no"?>
<!DOCTYPE svg PUBLIC "-//W3C//DTD SVG 20010904//EN"
 "http://www.w3.org/TR/2001/REC-SVG-20010904/DTD/svg10.dtd">
<svg version="1.0" xmlns="http://www.w3.org/2000/svg"
 width="1095.000000pt" height="1095.000000pt" viewBox="0 0 1095.000000 1095.000000"
 preserveAspectRatio="xMidYMid meet">
<metadata>
Created by potrace 1.11, written by Peter Selinger 2001-2013
</metadata>
<g transform="translate(0.000000,1095.000000) scale(0.100000,-0.100000)"
fill="#000000" stroke="none">
<path d="M7940 7749 c-405 -21 -726 -153 -994 -409 -103 -98 -185 -203 -303
-386 -9 -15 -12 57 -12 334 l-1 352 -310 0 -310 0 0 -2980 0 -2980 330 0 330
0 0 1211 c0 689 4 1208 9 1205 5 -3 27 -37 49 -74 213 -358 517 -614 870 -732
264 -88 677 -98 977 -24 423 105 767 344 1018 707 288 417 427 906 427 1502 0
451 -77 830 -238 1177 -139 300 -387 607 -630 781 -324 233 -738 340 -1212
316z m355 -573 c459 -103 765 -397 926 -888 164 -503 157 -1209 -17 -1676
-161 -431 -439 -691 -854 -800 -172 -46 -452 -58 -620 -28 -243 44 -449 153
-616 328 -241 253 -379 549 -440 943 -27 171 -27 667 -1 835 21 135 56 284 92
393 61 189 195 418 326 560 159 174 392 297 647 342 105 19 460 13 557 -9z"/>
<path d="M2930 7744 c-743 -70 -1244 -374 -1489 -906 -62 -134 -132 -372 -115
-387 14 -12 634 -55 644 -45 4 5 15 36 25 69 59 210 196 395 384 520 219 146
446 205 786 205 274 0 456 -32 621 -110 196 -91 321 -214 409 -404 79 -168
104 -315 105 -598 l0 -186 -112 -6 c-62 -3 -311 -8 -553 -11 -633 -8 -855 -25
-1140 -87 -699 -151 -1148 -512 -1270 -1022 -78 -325 -55 -616 70 -871 64
-130 125 -214 232 -316 233 -223 536 -341 942 -369 572 -38 1101 126 1537 478
106 85 228 209 298 301 l41 54 3 -361 2 -362 310 0 311 0 -4 1518 c-3 1365 -5
1527 -20 1612 -65 364 -185 624 -384 831 -241 250 -562 392 -1002 444 -113 13
-521 19 -631 9z m1370 -2588 c0 -307 -15 -393 -100 -567 -64 -133 -128 -219
-259 -349 -279 -277 -583 -432 -956 -485 -197 -29 -439 -14 -600 35 -80 25
-186 76 -252 122 -106 72 -205 203 -242 318 -35 112 -31 310 10 459 73 268
294 472 629 580 265 85 493 108 1225 120 259 4 487 9 508 9 l37 2 0 -244z"/>
</g>
</svg>
